<svg width="106" height="88" viewBox="0 0 106 88" fill="none" xmlns="http://www.w3.org/2000/svg">
<g filter="url(#filter0_d)">
<rect x="79.3452" y="40.542" width="21" height="27" transform="rotate(-1.72989 79.3452 40.542)" fill="#FFE8A5"/>
<rect x="79.3452" y="40.542" width="21" height="27" transform="rotate(-1.72989 79.3452 40.542)" fill="#CBF0F8"/>
<rect x="79.3452" y="40.542" width="21" height="27" transform="rotate(-1.72989 79.3452 40.542)" fill="#E8EAED"/>
<rect x="79.3452" y="40.542" width="21" height="27" transform="rotate(-1.72989 79.3452 40.542)" fill="#CBF0F8"/>
<rect x="79.3452" y="40.542" width="21" height="27" transform="rotate(-1.72989 79.3452 40.542)" stroke="#8BC3CF"/>
</g>
<g filter="url(#filter1_d)">
<rect x="41.6152" y="56.1733" width="21" height="27" transform="rotate(-9.9409 41.6152 56.1733)" fill="#FFE8A5"/>
<rect x="41.6152" y="56.1733" width="21" height="27" transform="rotate(-9.9409 41.6152 56.1733)" fill="#CBF0F8"/>
<rect x="41.6152" y="56.1733" width="21" height="27" transform="rotate(-9.9409 41.6152 56.1733)" fill="#E8EAED"/>
<rect x="41.6152" y="56.1733" width="21" height="27" transform="rotate(-9.9409 41.6152 56.1733)" fill="#E8EAED"/>
<rect x="41.6152" y="56.1733" width="21" height="27" transform="rotate(-9.9409 41.6152 56.1733)" stroke="#A8AAAE"/>
</g>
<g filter="url(#filter2_d)">
<rect x="15.3457" y="13.542" width="21" height="27" transform="rotate(-1.72989 15.3457 13.542)" fill="#FFE8A5"/>
<rect x="15.3457" y="13.542" width="21" height="27" transform="rotate(-1.72989 15.3457 13.542)" fill="#CBF0F8"/>
<rect x="15.3457" y="13.542" width="21" height="27" transform="rotate(-1.72989 15.3457 13.542)" fill="#E8EAED"/>
<rect x="15.3457" y="13.542" width="21" height="27" transform="rotate(-1.72989 15.3457 13.542)" fill="#D7AEFB"/>
<rect x="15.3457" y="13.542" width="21" height="27" transform="rotate(-1.72989 15.3457 13.542)" stroke="#9087A8"/>
</g>
<g filter="url(#filter3_d)">
<rect x="5.45898" y="52.304" width="21" height="27" transform="rotate(1.36932 5.45898 52.304)" fill="#FFE8A5"/>
<rect x="5.45898" y="52.304" width="21" height="27" transform="rotate(1.36932 5.45898 52.304)" fill="#CBF0F8"/>
<rect x="5.45898" y="52.304" width="21" height="27" transform="rotate(1.36932 5.45898 52.304)" fill="#E8EAED"/>
<rect x="5.45898" y="52.304" width="21" height="27" transform="rotate(1.36932 5.45898 52.304)" fill="#FF81A7"/>
<rect x="5.45898" y="52.304" width="21" height="27" transform="rotate(1.36932 5.45898 52.304)" stroke="#9E6B7A"/>
</g>
<g filter="url(#filter4_d)">
<rect x="55.5723" y="4.63135" width="21" height="27" transform="rotate(3.5437 55.5723 4.63135)" fill="#FFE8A5"/>
<rect x="55.5723" y="4.63135" width="21" height="27" transform="rotate(3.5437 55.5723 4.63135)" fill="#CBF0F8"/>
<rect x="55.5723" y="4.63135" width="21" height="27" transform="rotate(3.5437 55.5723 4.63135)" fill="#E8EAED"/>
<rect x="55.5723" y="4.63135" width="21" height="27" transform="rotate(3.5437 55.5723 4.63135)" fill="#FFE8A5"/>
<rect x="55.5723" y="4.63135" width="21" height="27" transform="rotate(3.5437 55.5723 4.63135)" stroke="#B3B0A9"/>
</g>
<defs>
<filter id="filter0_d" x="74.8306" y="35.3931" width="30.8352" height="36.6514" filterUnits="userSpaceOnUse" color-interpolation-filters="sRGB">
<feFlood flood-opacity="0" result="BackgroundImageFix"/>
<feColorMatrix in="SourceAlpha" type="matrix" values="0 0 0 0 0 0 0 0 0 0 0 0 0 0 0 0 0 0 127 0"/>
<feOffset/>
<feGaussianBlur stdDeviation="2"/>
<feColorMatrix type="matrix" values="0 0 0 0 0.564706 0 0 0 0 0.529412 0 0 0 0 0.658824 0 0 0 1 0"/>
<feBlend mode="normal" in2="BackgroundImageFix" result="effect1_dropShadow"/>
<feBlend mode="normal" in="SourceGraphic" in2="effect1_dropShadow" result="shape"/>
</filter>
<filter id="filter1_d" x="37.0366" y="47.9692" width="34.5034" height="39.3775" filterUnits="userSpaceOnUse" color-interpolation-filters="sRGB">
<feFlood flood-opacity="0" result="BackgroundImageFix"/>
<feColorMatrix in="SourceAlpha" type="matrix" values="0 0 0 0 0 0 0 0 0 0 0 0 0 0 0 0 0 0 127 0"/>
<feOffset/>
<feGaussianBlur stdDeviation="2"/>
<feColorMatrix type="matrix" values="0 0 0 0 0.564706 0 0 0 0 0.529412 0 0 0 0 0.658824 0 0 0 1 0"/>
<feBlend mode="normal" in2="BackgroundImageFix" result="effect1_dropShadow"/>
<feBlend mode="normal" in="SourceGraphic" in2="effect1_dropShadow" result="shape"/>
</filter>
<filter id="filter2_d" x="10.8311" y="8.39307" width="30.8352" height="36.6514" filterUnits="userSpaceOnUse" color-interpolation-filters="sRGB">
<feFlood flood-opacity="0" result="BackgroundImageFix"/>
<feColorMatrix in="SourceAlpha" type="matrix" values="0 0 0 0 0 0 0 0 0 0 0 0 0 0 0 0 0 0 127 0"/>
<feOffset/>
<feGaussianBlur stdDeviation="2"/>
<feColorMatrix type="matrix" values="0 0 0 0 0.564706 0 0 0 0 0.529412 0 0 0 0 0.658824 0 0 0 1 0"/>
<feBlend mode="normal" in2="BackgroundImageFix" result="effect1_dropShadow"/>
<feBlend mode="normal" in="SourceGraphic" in2="effect1_dropShadow" result="shape"/>
</filter>
<filter id="filter3_d" x="0.301758" y="47.7922" width="30.6628" height="36.5177" filterUnits="userSpaceOnUse" color-interpolation-filters="sRGB">
<feFlood flood-opacity="0" result="BackgroundImageFix"/>
<feColorMatrix in="SourceAlpha" type="matrix" values="0 0 0 0 0 0 0 0 0 0 0 0 0 0 0 0 0 0 127 0"/>
<feOffset/>
<feGaussianBlur stdDeviation="2"/>
<feColorMatrix type="matrix" values="0 0 0 0 0.564706 0 0 0 0 0.529412 0 0 0 0 0.658824 0 0 0 1 0"/>
<feBlend mode="normal" in2="BackgroundImageFix" result="effect1_dropShadow"/>
<feBlend mode="normal" in="SourceGraphic" in2="effect1_dropShadow" result="shape"/>
</filter>
<filter id="filter4_d" x="49.3735" y="0.101318" width="31.6886" height="37.3063" filterUnits="userSpaceOnUse" color-interpolation-filters="sRGB">
<feFlood flood-opacity="0" result="BackgroundImageFix"/>
<feColorMatrix in="SourceAlpha" type="matrix" values="0 0 0 0 0 0 0 0 0 0 0 0 0 0 0 0 0 0 127 0"/>
<feOffset/>
<feGaussianBlur stdDeviation="2"/>
<feColorMatrix type="matrix" values="0 0 0 0 0.564706 0 0 0 0 0.529412 0 0 0 0 0.658824 0 0 0 1 0"/>
<feBlend mode="normal" in2="BackgroundImageFix" result="effect1_dropShadow"/>
<feBlend mode="normal" in="SourceGraphic" in2="effect1_dropShadow" result="shape"/>
</filter>
</defs>
</svg>
