<svg width="103" height="85" viewBox="0 0 103 85" fill="none" xmlns="http://www.w3.org/2000/svg">
<g filter="url(#filter0_d)">
<rect x="79.312" y="37.908" width="21" height="27" fill="#FFE8A5"/>
<rect x="79.312" y="37.908" width="21" height="27" fill="#CBF0F8"/>
</g>
<g filter="url(#filter1_d)">
<rect x="41.4917" y="53.5459" width="21" height="27" transform="rotate(-8.21101 41.4917 53.5459)" fill="#FFE8A5"/>
<rect x="41.4917" y="53.5459" width="21" height="27" transform="rotate(-8.21101 41.4917 53.5459)" fill="#CBF0F8"/>
<rect x="41.4917" y="53.5459" width="21" height="27" transform="rotate(-8.21101 41.4917 53.5459)" fill="#E8EAED"/>
</g>
<g filter="url(#filter2_d)">
<rect x="15.312" y="11.542" width="21" height="27" transform="rotate(-1.72989 15.312 11.542)" fill="#FFE8A5"/>
<rect x="15.312" y="11.542" width="21" height="27" transform="rotate(-1.72989 15.312 11.542)" fill="#CBF0F8"/>
<rect x="15.312" y="11.542" width="21" height="27" transform="rotate(-1.72989 15.312 11.542)" fill="#E8EAED"/>
<rect x="15.312" y="11.542" width="21" height="27" transform="rotate(-1.72989 15.312 11.542)" fill="#D7AEFB"/>
</g>
<g filter="url(#filter3_d)">
<rect x="5.45996" y="49.6709" width="21" height="27" transform="rotate(3.0992 5.45996 49.6709)" fill="#FFE8A5"/>
<rect x="5.45996" y="49.6709" width="21" height="27" transform="rotate(3.0992 5.45996 49.6709)" fill="#CBF0F8"/>
<rect x="5.45996" y="49.6709" width="21" height="27" transform="rotate(3.0992 5.45996 49.6709)" fill="#E8EAED"/>
<rect x="5.45996" y="49.6709" width="21" height="27" transform="rotate(3.0992 5.45996 49.6709)" fill="#FF81A7"/>
</g>
<g filter="url(#filter4_d)">
<rect x="55.5972" y="2" width="21" height="27" transform="rotate(5.27359 55.5972 2)" fill="#FFE8A5"/>
<rect x="55.5972" y="2" width="21" height="27" transform="rotate(5.27359 55.5972 2)" fill="#CBF0F8"/>
<rect x="55.5972" y="2" width="21" height="27" transform="rotate(5.27359 55.5972 2)" fill="#E8EAED"/>
<rect x="55.5972" y="2" width="21" height="27" transform="rotate(5.27359 55.5972 2)" fill="#FFE8A5"/>
</g>
<defs>
<filter id="filter0_d" x="75.312" y="35.908" width="27" height="33" filterUnits="userSpaceOnUse" color-interpolation-filters="sRGB">
<feFlood flood-opacity="0" result="BackgroundImageFix"/>
<feColorMatrix in="SourceAlpha" type="matrix" values="0 0 0 0 0 0 0 0 0 0 0 0 0 0 0 0 0 0 127 0"/>
<feOffset dx="-1" dy="1"/>
<feGaussianBlur stdDeviation="1.5"/>
<feColorMatrix type="matrix" values="0 0 0 0 0 0 0 0 0 0 0 0 0 0 0 0 0 0 0.2 0"/>
<feBlend mode="normal" in2="BackgroundImageFix" result="effect1_dropShadow"/>
<feBlend mode="normal" in="SourceGraphic" in2="effect1_dropShadow" result="shape"/>
</filter>
<filter id="filter1_d" x="37.4917" y="48.5466" width="30.6408" height="35.7224" filterUnits="userSpaceOnUse" color-interpolation-filters="sRGB">
<feFlood flood-opacity="0" result="BackgroundImageFix"/>
<feColorMatrix in="SourceAlpha" type="matrix" values="0 0 0 0 0 0 0 0 0 0 0 0 0 0 0 0 0 0 127 0"/>
<feOffset dx="-1" dy="1"/>
<feGaussianBlur stdDeviation="1.5"/>
<feColorMatrix type="matrix" values="0 0 0 0 0 0 0 0 0 0 0 0 0 0 0 0 0 0 0.2 0"/>
<feBlend mode="normal" in2="BackgroundImageFix" result="effect1_dropShadow"/>
<feBlend mode="normal" in="SourceGraphic" in2="effect1_dropShadow" result="shape"/>
</filter>
<filter id="filter2_d" x="11.312" y="8.90796" width="27.8055" height="33.6216" filterUnits="userSpaceOnUse" color-interpolation-filters="sRGB">
<feFlood flood-opacity="0" result="BackgroundImageFix"/>
<feColorMatrix in="SourceAlpha" type="matrix" values="0 0 0 0 0 0 0 0 0 0 0 0 0 0 0 0 0 0 127 0"/>
<feOffset dx="-1" dy="1"/>
<feGaussianBlur stdDeviation="1.5"/>
<feColorMatrix type="matrix" values="0 0 0 0 0 0 0 0 0 0 0 0 0 0 0 0 0 0 0.2 0"/>
<feBlend mode="normal" in2="BackgroundImageFix" result="effect1_dropShadow"/>
<feBlend mode="normal" in="SourceGraphic" in2="effect1_dropShadow" result="shape"/>
</filter>
<filter id="filter3_d" x="0" y="47.6709" width="28.429" height="34.0959" filterUnits="userSpaceOnUse" color-interpolation-filters="sRGB">
<feFlood flood-opacity="0" result="BackgroundImageFix"/>
<feColorMatrix in="SourceAlpha" type="matrix" values="0 0 0 0 0 0 0 0 0 0 0 0 0 0 0 0 0 0 127 0"/>
<feOffset dx="-1" dy="1"/>
<feGaussianBlur stdDeviation="1.5"/>
<feColorMatrix type="matrix" values="0 0 0 0 0 0 0 0 0 0 0 0 0 0 0 0 0 0 0.2 0"/>
<feBlend mode="normal" in2="BackgroundImageFix" result="effect1_dropShadow"/>
<feBlend mode="normal" in="SourceGraphic" in2="effect1_dropShadow" result="shape"/>
</filter>
<filter id="filter4_d" x="49.1157" y="0" width="29.3927" height="34.8159" filterUnits="userSpaceOnUse" color-interpolation-filters="sRGB">
<feFlood flood-opacity="0" result="BackgroundImageFix"/>
<feColorMatrix in="SourceAlpha" type="matrix" values="0 0 0 0 0 0 0 0 0 0 0 0 0 0 0 0 0 0 127 0"/>
<feOffset dx="-1" dy="1"/>
<feGaussianBlur stdDeviation="1.5"/>
<feColorMatrix type="matrix" values="0 0 0 0 0 0 0 0 0 0 0 0 0 0 0 0 0 0 0.2 0"/>
<feBlend mode="normal" in2="BackgroundImageFix" result="effect1_dropShadow"/>
<feBlend mode="normal" in="SourceGraphic" in2="effect1_dropShadow" result="shape"/>
</filter>
</defs>
</svg>
